HIERARCHY
ROOT Hips
{
	OFFSET 0.000000 0.000000 0.000000
	CHANNELS 6 Xposition Yposition Zposition Zrotation Yrotation Xrotation 
	JOINT LeftUpLeg_virtual
	{
		OFFSET 0.000000 0.000000 0.000000
		CHANNELS 3 Zrotation Yrotation Xrotation
		JOINT LeftUpLeg
		{
			OFFSET 8.479694 -4.795517 -0.379053
			CHANNELS 3 Zrotation Yrotation Xrotation
			JOINT LeftLeg
			{
				OFFSET 0.485052 -32.551468 0.112863
				CHANNELS 3 Zrotation Yrotation Xrotation
				JOINT LeftFoot
				{
					OFFSET 0.438033 -32.635670 -3.012641
					CHANNELS 3 Zrotation Yrotation Xrotation
					JOINT LeftToeBase
					{
						OFFSET 0.970169 -13.225353 11.864223
						CHANNELS 3 Zrotation Yrotation Xrotation
						End Site
						{
							OFFSET 0.000000 0.000000 0.000000
						}
					}
				}
			}
		}
	}
	JOINT RightUpLeg_virtual
	{
		OFFSET 0.000000 0.000000 0.000000
		CHANNELS 3 Zrotation Yrotation Xrotation
		JOINT RightUpLeg
		{
			OFFSET -8.479694 -4.795517 -0.379053
			CHANNELS 3 Zrotation Yrotation Xrotation
			JOINT RightLeg
			{
				OFFSET -0.484100 -32.551483 0.112903
				CHANNELS 3 Zrotation Yrotation Xrotation
				JOINT RightFoot
				{
					OFFSET -0.438985 -32.635651 -3.012681
					CHANNELS 3 Zrotation Yrotation Xrotation
					JOINT RightToeBase
					{
						OFFSET -0.970169 -13.225354 11.864223
						CHANNELS 3 Zrotation Yrotation Xrotation
						End Site
						{
							OFFSET 0.000000 0.000000 0.000000
						}
					}
				}
			}
		}
	}
	JOINT Spine_virtual
	{
		OFFSET 0.000000 0.000000 0.000000
		CHANNELS 3 Zrotation Yrotation Xrotation
		JOINT Spine
		{
			OFFSET 0.000000 7.722015 1.166203
			CHANNELS 3 Zrotation Yrotation Xrotation
			JOINT Spine1
			{
				OFFSET 0.000000 12.024086 0.248766
				CHANNELS 3 Zrotation Yrotation Xrotation
				JOINT Spine2
				{
					OFFSET -0.000000 11.503036 -0.491240
					CHANNELS 3 Zrotation Yrotation Xrotation
					JOINT Neck_virtual
					{
						OFFSET 0.000000 0.000000 0.000000
						CHANNELS 3 Zrotation Yrotation Xrotation
						JOINT Neck
						{
							OFFSET 0.000000 18.430687 -3.123054
							CHANNELS 3 Zrotation Yrotation Xrotation
							JOINT Head
							{
								OFFSET -0.000000 9.051071 1.034021
								CHANNELS 3 Zrotation Yrotation Xrotation
								End Site
								{
									OFFSET 0.000000 0.000000 0.000000
								}
							}
						}
					}
					JOINT LeftShoulder_virtual
					{
						OFFSET 0.000000 0.000000 0.000000
						CHANNELS 3 Zrotation Yrotation Xrotation
						JOINT LeftShoulder
						{
							OFFSET 6.197824 13.665230 -4.064723
							CHANNELS 3 Zrotation Yrotation Xrotation
							JOINT LeftArm
							{
								OFFSET 7.778132 -0.187073 -1.709282
								CHANNELS 3 Zrotation Yrotation Xrotation
								JOINT LeftForeArm
								{
									OFFSET 21.954697 0.000000 -2.041093
									CHANNELS 3 Zrotation Yrotation Xrotation
									JOINT LeftHand
									{
										OFFSET 22.992908 0.000000 -0.870901
										CHANNELS 3 Zrotation Yrotation Xrotation
										End Site
										{
											OFFSET 0.000000 0.000000 0.000000
										}
									}
								}
							}
						}
					}
					JOINT RightShoulder_virtual
					{
						OFFSET 0.000000 0.000000 0.000000
						CHANNELS 3 Zrotation Yrotation Xrotation
						JOINT RightShoulder
						{
							OFFSET -6.197824 13.665230 -4.064723
							CHANNELS 3 Zrotation Yrotation Xrotation
							JOINT RightArm
							{
								OFFSET -7.778132 -0.187073 -1.709282
								CHANNELS 3 Zrotation Yrotation Xrotation
								JOINT RightForeArm
								{
									OFFSET -21.954697 0.000000 -2.041093
									CHANNELS 3 Zrotation Yrotation Xrotation
									JOINT RightHand
									{
										OFFSET -22.992908 0.000000 -0.870901
										CHANNELS 3 Zrotation Yrotation Xrotation
										End Site
										{
											OFFSET 0.000000 0.000000 0.000000
										}
									}
								}
							}
						}
					}
				}
			}
		}
	}
}
MOTION
Frames: 8
Frame Time: 0.033333
-2.988876 81.696510 53.501434 179.988722 1.559156 -179.972247 -3.986641 -2.127537 10.836122 -0.786789 0.010087 -23.320112 6.647589 5.066241 27.912512 -1.256688 -10.222138 -8.582784 0.000000 0.000000 0.000000 0.231738 -2.285244 9.582347 -5.144601 3.347166 -21.866014 -1.274782 4.379563 30.455226 8.143223 6.335197 -10.065577 0.000000 0.000000 0.000000 2.669690 0.782423 -1.605453 -5.718733 2.819226 0.233876 -0.588710 -2.474311 3.301687 -0.020137 -0.001455 -0.007537 -0.979209 -1.281345 4.146968 0.387183 -0.595851 -11.691955 0.000000 0.000000 0.000000 0.469727 -0.505150 1.526082 10.991483 3.986933 -3.821733 -6.948427 1.011300 -47.924808 -1.846742 -32.365080 -4.948604 0.000000 0.000000 0.000000 -3.260759 0.607665 1.104313 9.215137 -13.561745 -5.200147 12.165845 -10.019259 -45.674103 0.171697 31.693311 -4.021017 0.000000 0.000000 0.000000 
-2.999480 81.705757 53.499454 -179.995401 1.603012 -179.943260 -3.913093 -2.124889 10.892146 -0.916929 0.190283 -23.279735 6.489933 5.149055 28.141411 -1.584445 -10.605115 -8.818170 0.000000 0.000000 0.000000 0.250750 -2.238383 9.576458 -5.096043 3.200567 -21.884691 -1.345904 4.228386 30.729516 7.908544 6.056364 -10.123115 0.000000 0.000000 0.000000 2.645308 0.792044 -1.654431 -5.714412 2.827802 0.296215 -0.572248 -2.476801 3.316756 0.014692 -0.003061 -0.061573 -1.048691 -1.344042 4.173596 0.384555 -0.661603 -11.677237 0.000000 0.000000 0.000000 0.384006 -0.505091 1.552974 10.970144 3.974421 -3.795790 -7.002857 0.968719 -47.770548 -1.733967 -32.301730 -5.030809 0.000000 0.000000 0.000000 -3.310621 0.604712 1.120867 9.174354 -13.578571 -5.258675 12.242769 -10.038251 -45.680315 0.169096 31.700148 -4.025339 0.000000 0.000000 0.000000 
-3.010021 81.708549 53.496536 -179.989568 1.637666 -179.953437 -3.901443 -2.048549 10.905063 -0.922716 0.111057 -23.277411 6.502431 5.170941 28.118439 -1.592926 -10.575139 -8.756013 0.000000 0.000000 0.000000 0.286460 -2.220519 9.581600 -5.125816 3.214878 -21.877857 -1.343227 4.278641 30.724465 7.895221 6.034125 -10.143888 0.000000 0.000000 0.000000 2.638784 0.801612 -1.590056 -5.708882 2.845517 0.295278 -0.564602 -2.462998 3.274160 0.008291 0.012656 -0.004315 -1.034942 -1.332565 4.131569 0.395432 -0.666759 -11.654616 0.000000 0.000000 0.000000 0.403068 -0.499882 1.543682 10.966968 3.968042 -3.800222 -7.047716 0.944465 -47.666145 -1.706050 -32.206528 -4.947081 0.000000 0.000000 0.000000 -3.317700 0.627659 1.079135 9.236736 -13.531396 -5.121917 12.223455 -10.045104 -45.638839 0.097747 31.705502 -4.090225 0.000000 0.000000 0.000000 
-3.025043 81.712059 53.484978 -179.997000 1.584419 -179.942331 -3.921712 -2.090764 10.909121 -0.921647 0.106563 -23.294630 6.514185 5.160367 28.135943 -1.595398 -10.561886 -8.757307 0.000000 0.000000 0.000000 0.273053 -2.220031 9.592862 -5.131408 3.241519 -21.859780 -1.355161 4.231221 30.687852 7.896214 6.015248 -10.132913 0.000000 0.000000 0.000000 2.605568 0.788765 -1.535449 -5.717080 2.857203 0.294470 -0.547303 -2.460927 3.295859 0.019932 0.007938 0.024766 -1.026736 -1.352431 4.098012 0.438193 -0.679189 -11.620224 0.000000 0.000000 0.000000 0.387642 -0.441651 1.498292 10.898949 3.980375 -3.787790 -7.073859 0.947328 -47.669208 -1.693661 -32.142378 -4.735093 0.000000 0.000000 0.000000 -3.301992 0.634157 1.070060 9.207431 -13.505603 -5.223193 12.285843 -10.053531 -45.699645 0.159676 31.659095 -3.990334 0.000000 0.000000 0.000000 
-3.045995 81.715363 53.478550 -179.977097 1.451394 -179.927987 -3.934117 -2.194635 10.915471 -0.921733 0.056718 -23.313312 6.523363 5.153310 28.152822 -1.603346 -10.547731 -8.732732 0.000000 0.000000 0.000000 0.295819 -2.301182 9.602823 -5.149690 3.260774 -21.851824 -1.361935 4.230022 30.650173 7.872263 5.972285 -10.143893 0.000000 0.000000 0.000000 2.594525 0.754143 -1.488968 -5.710758 2.856348 0.262658 -0.530788 -2.466570 3.270877 0.011840 0.001585 -0.006817 -1.017679 -1.311551 4.119973 0.478469 -0.671554 -11.571136 0.000000 0.000000 0.000000 0.383548 -0.531651 1.559453 10.890638 3.912029 -3.794883 -7.193478 0.959896 -47.676305 -1.680357 -32.128411 -4.730173 0.000000 0.000000 0.000000 -3.329996 0.575226 1.060607 9.304943 -13.488529 -5.077146 12.340805 -10.163697 -45.718390 0.060654 31.633461 -4.070109 0.000000 0.000000 0.000000 
-3.078610 81.716637 53.472397 179.934107 1.404042 -179.922974 -4.009904 -2.242187 10.933141 -0.950106 -0.003961 -23.339127 6.527964 5.155906 28.141873 -1.572998 -10.505025 -8.713393 0.000000 0.000000 0.000000 0.211390 -2.321710 9.612787 -5.188530 3.246393 -21.836736 -1.385404 4.223830 30.623891 7.868713 5.954224 -10.126298 0.000000 0.000000 0.000000 2.530608 0.740182 -1.454867 -5.751238 2.873334 0.238629 -0.560338 -2.441019 3.271582 -0.014885 0.011894 0.008554 -0.931286 -1.273109 4.071259 0.548001 -0.752567 -11.515300 0.000000 0.000000 0.000000 0.464588 -0.522526 1.555305 10.786266 3.879653 -3.714347 -7.162776 0.931118 -47.716149 -1.624597 -32.118063 -4.571068 0.000000 0.000000 0.000000 -3.246194 0.602960 1.000338 9.401780 -13.433347 -4.967481 12.409383 -10.260367 -45.599279 0.011155 31.581272 -4.039298 0.000000 0.000000 0.000000 
-3.120655 81.713997 53.465557 -179.992082 1.388536 -179.927332 -3.969454 -2.238135 10.958475 -0.958232 -0.050097 -23.360022 6.540938 5.155503 28.168924 -1.564408 -10.484767 -8.718040 0.000000 0.000000 0.000000 0.321690 -2.354344 9.616403 -5.216704 3.324411 -21.836854 -1.377191 4.258435 30.621582 7.871586 5.938561 -10.157141 0.000000 0.000000 0.000000 2.546485 0.701857 -1.395667 -5.684125 2.876665 0.239069 -0.534663 -2.420803 3.283771 -0.048790 0.021700 0.018424 -0.897240 -1.213551 4.053913 0.568125 -0.683070 -11.402049 0.000000 0.000000 0.000000 0.497461 -0.514028 1.527665 10.780158 3.865334 -3.781166 -7.307067 0.932020 -47.408292 -1.435972 -32.200961 -4.527678 0.000000 0.000000 0.000000 -3.248601 0.652803 0.947804 9.448370 -13.317441 -5.028457 12.502751 -10.469568 -45.506251 0.055099 31.515442 -3.933494 0.000000 0.000000 0.000000 
-3.180688 81.708679 53.453918 179.990921 1.270557 -179.911759 -3.984127 -2.358695 10.974254 -0.997496 -0.128244 -23.395573 6.567488 5.180017 28.201747 -1.511506 -10.425080 -8.719000 0.000000 0.000000 0.000000 0.333145 -2.458039 9.614562 -5.292984 3.313035 -21.850851 -1.374525 4.366172 30.597393 7.872222 5.922179 -10.199098 0.000000 0.000000 0.000000 2.501211 0.598270 -1.366126 -5.688872 2.822103 0.223706 -0.526101 -2.450728 3.290180 -0.027645 -0.027124 0.036371 -0.927249 -1.262890 4.073483 0.569473 -0.635592 -11.235948 0.000000 0.000000 0.000000 0.475098 -0.367882 1.494545 10.659458 3.888308 -3.771257 -7.349748 0.961949 -47.239200 -1.271693 -32.278839 -4.424512 0.000000 0.000000 0.000000 -3.205429 0.660138 1.019194 9.576600 -13.096535 -4.897791 12.576195 -10.457650 -45.376191 0.002827 31.472511 -3.871430 0.000000 0.000000 0.000000 
